<svg version="1.1" id="Layer_1" xmlns="http://www.w3.org/2000/svg" xmlns:xlink="http://www.w3.org/1999/xlink" x="0px" y="0px"
	 width="100%" viewBox="0 0 2000 1500" enable-background="new 0 0 2000 1500" xml:space="preserve">
<path fill="#0D3D0B" opacity="1.000000" stroke="none" 
	d="
M1452.000000,1501.000000 
	C968.000122,1501.000000 484.500275,1501.000000 1.000324,1501.000000 
	C1.000216,1001.000305 1.000216,501.000580 1.000108,1.000660 
	C667.666199,1.000440 1334.332397,1.000440 2000.998901,1.000220 
	C2000.999268,500.999359 2000.999268,1000.998718 2000.999634,1500.999023 
	C1818.166626,1501.000000 1635.333374,1501.000000 1452.000000,1501.000000 
M1727.670776,689.853149 
	C1727.424805,689.236450 1727.170166,688.623108 1726.933716,688.002747 
	C1697.564941,610.930725 1606.322754,575.830811 1532.996582,613.398438 
	C1470.534790,645.399841 1441.461914,715.859070 1463.110352,782.770142 
	C1484.949585,850.270813 1558.261108,891.718201 1626.947388,875.397034 
	C1709.922119,855.680664 1756.131592,771.116028 1727.670776,689.853149 
M759.897400,855.611877 
	C791.861511,876.148804 826.459167,883.077148 863.902710,876.160828 
	C947.267578,860.762573 998.463135,770.005066 968.518433,690.500488 
	C937.699341,608.674500 844.910522,574.332581 768.192627,616.358215 
	C719.956238,642.781799 690.702148,698.856506 697.278625,753.221069 
	C702.511658,796.479980 723.442139,830.439331 759.897400,855.611877 
M265.700562,1101.499878 
	C265.700562,1124.941895 265.700562,1148.383911 265.700562,1171.954102 
	C547.113647,1171.954102 827.999573,1171.954102 1109.003540,1171.954102 
	C1109.003540,1117.062378 1109.003540,1062.466797 1109.003540,1007.631165 
	C1104.532959,1007.631165 1100.294067,1007.631165 1095.530518,1007.631165 
	C1095.530518,1058.005737 1095.530518,1108.088379 1095.530518,1158.373779 
	C823.273621,1158.373779 551.542542,1158.373779 279.550568,1158.373779 
	C279.550568,886.358521 279.550568,614.634094 279.550568,342.767365 
	C551.666992,342.767365 823.514221,342.767365 1095.711914,342.767365 
	C1095.711914,393.160034 1095.711914,443.122131 1095.711914,493.372894 
	C1100.301636,493.372894 1104.541382,493.372894 1108.879883,493.372894 
	C1108.879883,438.408081 1108.879883,383.693634 1108.879883,329.139954 
	C827.636292,329.139954 546.746826,329.139954 265.700562,329.139954 
	C265.700562,586.519775 265.700562,843.509766 265.700562,1101.499878 
M1431.278076,707.165955 
	C1418.828491,647.447449 1363.620972,602.676758 1301.042480,601.886292 
	C1274.394165,601.549683 1247.738159,601.815674 1221.085571,601.826538 
	C1219.971558,601.827026 1218.857666,602.018250 1217.589111,602.134766 
	C1217.589111,692.440308 1217.589111,782.478577 1217.589111,872.742371 
	C1218.789185,872.828796 1219.750732,872.958496 1220.712158,872.958435 
	C1248.030884,872.956726 1275.351929,873.153198 1302.667603,872.860718 
	C1323.463867,872.638123 1343.119751,867.304382 1361.549683,857.702515 
	C1412.781616,831.011230 1445.369751,771.835938 1431.278076,707.165955 
M601.145691,657.821716 
	C602.746033,657.214722 604.343811,656.086609 605.947021,656.078918 
	C629.602417,655.965332 653.258484,656.000610 676.914429,656.000549 
	C678.674438,656.000549 680.434448,656.000610 682.239868,656.000610 
	C682.239868,637.641663 682.239868,619.895447 682.239868,602.176208 
	C609.896545,602.176208 537.855347,602.176208 465.978149,602.176208 
	C465.978149,620.269226 465.978149,638.000000 465.978149,656.223633 
	C493.193176,656.223633 520.078308,656.223633 547.402161,656.223633 
	C547.402161,728.759583 547.402161,800.797241 547.402161,872.746216 
	C565.462097,872.746216 583.073914,872.746216 601.136169,872.746216 
	C601.136169,801.275696 601.136169,730.023926 601.145691,657.821716 
M1125.500000,761.824097 
	C1139.931641,761.824097 1154.363159,761.824097 1168.788574,761.824097 
	C1168.788574,744.313293 1168.788574,727.418152 1168.788574,710.589661 
	C1115.784302,710.589661 1063.106079,710.589661 1010.458618,710.589661 
	C1010.458618,727.768311 1010.458618,744.531921 1010.458618,761.824097 
	C1048.646118,761.824097 1086.573120,761.824097 1125.500000,761.824097 
z"/>
<path fill="#E7FEE2" opacity="1.000000" stroke="none" 
	d="
M1727.802246,690.221069 
	C1756.131592,771.116028 1709.922119,855.680664 1626.947388,875.397034 
	C1558.261108,891.718201 1484.949585,850.270813 1463.110352,782.770142 
	C1441.461914,715.859070 1470.534790,645.399841 1532.996582,613.398438 
	C1606.322754,575.830811 1697.564941,610.930725 1726.933716,688.002747 
	C1727.170166,688.623108 1727.424805,689.236450 1727.802246,690.221069 
M1528.630127,791.841492 
	C1552.665283,820.875366 1589.378784,831.723572 1623.861206,819.980774 
	C1658.135254,808.308960 1681.375000,776.650635 1682.359863,740.290833 
	C1683.810181,686.754517 1634.826782,644.141602 1582.319580,653.261108 
	C1517.240723,664.564209 1488.273804,738.408325 1528.630127,791.841492 
z"/>
<path fill="#E7FEE2" opacity="1.000000" stroke="none" 
	d="
M759.604736,855.398315 
	C723.442139,830.439331 702.511658,796.479980 697.278625,753.221069 
	C690.702148,698.856506 719.956238,642.781799 768.192627,616.358215 
	C844.910522,574.332581 937.699341,608.674500 968.518433,690.500488 
	C998.463135,770.005066 947.267578,860.762573 863.902710,876.160828 
	C826.459167,883.077148 791.861511,876.148804 759.604736,855.398315 
M787.400208,667.861755 
	C759.338318,688.569214 746.796692,716.464600 751.429871,750.872314 
	C756.959778,791.940002 791.479736,822.236267 833.178040,824.356140 
	C890.491272,827.269897 935.017883,772.368530 920.358337,716.915100 
	C905.043091,658.981750 837.756042,633.505798 787.400208,667.861755 
z"/>
<path fill="#E8FFE3" opacity="1.000000" stroke="none" 
	d="
M265.700562,1100.999756 
	C265.700562,843.509766 265.700562,586.519775 265.700562,329.139954 
	C546.746826,329.139954 827.636292,329.139954 1108.879883,329.139954 
	C1108.879883,383.693634 1108.879883,438.408081 1108.879883,493.372894 
	C1104.541382,493.372894 1100.301636,493.372894 1095.711914,493.372894 
	C1095.711914,443.122131 1095.711914,393.160034 1095.711914,342.767365 
	C823.514221,342.767365 551.666992,342.767365 279.550568,342.767365 
	C279.550568,614.634094 279.550568,886.358521 279.550568,1158.373779 
	C551.542542,1158.373779 823.273621,1158.373779 1095.530518,1158.373779 
	C1095.530518,1108.088379 1095.530518,1058.005737 1095.530518,1007.631165 
	C1100.294067,1007.631165 1104.532959,1007.631165 1109.003540,1007.631165 
	C1109.003540,1062.466797 1109.003540,1117.062378 1109.003540,1171.954102 
	C827.999573,1171.954102 547.113647,1171.954102 265.700562,1171.954102 
	C265.700562,1148.383911 265.700562,1124.941895 265.700562,1100.999756 
z"/>
<path fill="#E7FEE2" opacity="1.000000" stroke="none" 
	d="
M1431.407104,707.565430 
	C1445.369751,771.835938 1412.781616,831.011230 1361.549683,857.702515 
	C1343.119751,867.304382 1323.463867,872.638123 1302.667603,872.860718 
	C1275.351929,873.153198 1248.030884,872.956726 1220.712158,872.958435 
	C1219.750732,872.958496 1218.789185,872.828796 1217.589111,872.742371 
	C1217.589111,782.478577 1217.589111,692.440308 1217.589111,602.134766 
	C1218.857666,602.018250 1219.971558,601.827026 1221.085571,601.826538 
	C1247.738159,601.815674 1274.394165,601.549683 1301.042480,601.886292 
	C1363.620972,602.676758 1418.828491,647.447449 1431.407104,707.565430 
M1314.551514,817.156616 
	C1347.615479,809.745728 1369.658203,789.887573 1377.751465,757.077576 
	C1386.043823,723.460876 1375.630005,695.003601 1348.701172,672.997009 
	C1326.107300,654.532898 1299.329834,654.907471 1272.247070,656.383789 
	C1272.247070,710.443237 1272.247070,764.336609 1272.247070,819.370728 
	C1286.238770,818.677063 1299.967407,817.996399 1314.551514,817.156616 
z"/>
<path fill="#E7FFE2" opacity="1.000000" stroke="none" 
	d="
M601.140930,658.296997 
	C601.136169,730.023926 601.136169,801.275696 601.136169,872.746216 
	C583.073914,872.746216 565.462097,872.746216 547.402161,872.746216 
	C547.402161,800.797241 547.402161,728.759583 547.402161,656.223633 
	C520.078308,656.223633 493.193176,656.223633 465.978149,656.223633 
	C465.978149,638.000000 465.978149,620.269226 465.978149,602.176208 
	C537.855347,602.176208 609.896545,602.176208 682.239868,602.176208 
	C682.239868,619.895447 682.239868,637.641663 682.239868,656.000610 
	C680.434448,656.000610 678.674438,656.000549 676.914429,656.000549 
	C653.258484,656.000610 629.602417,655.965332 605.947021,656.078918 
	C604.343811,656.086609 602.746033,657.214722 601.140930,658.296997 
z"/>
<path fill="#E5FDE0" opacity="1.000000" stroke="none" 
	d="
M1125.000000,761.824097 
	C1086.573120,761.824097 1048.646118,761.824097 1010.458618,761.824097 
	C1010.458618,744.531921 1010.458618,727.768311 1010.458618,710.589661 
	C1063.106079,710.589661 1115.784302,710.589661 1168.788574,710.589661 
	C1168.788574,727.418152 1168.788574,744.313293 1168.788574,761.824097 
	C1154.363159,761.824097 1139.931641,761.824097 1125.000000,761.824097 
z"/>
<path fill="#0E3E0C" opacity="1.000000" stroke="none" 
	d="
M1528.402100,791.566650 
	C1488.273804,738.408325 1517.240723,664.564209 1582.319580,653.261108 
	C1634.826782,644.141602 1683.810181,686.754517 1682.359863,740.290833 
	C1681.375000,776.650635 1658.135254,808.308960 1623.861206,819.980774 
	C1589.378784,831.723572 1552.665283,820.875366 1528.402100,791.566650 
z"/>
<path fill="#0E3E0C" opacity="1.000000" stroke="none" 
	d="
M787.682739,667.638489 
	C837.756042,633.505798 905.043091,658.981750 920.358337,716.915100 
	C935.017883,772.368530 890.491272,827.269897 833.178040,824.356140 
	C791.479736,822.236267 756.959778,791.940002 751.429871,750.872314 
	C746.796692,716.464600 759.338318,688.569214 787.682739,667.638489 
z"/>
<path fill="#0E3E0C" opacity="1.000000" stroke="none" 
	d="
M1314.123779,817.236206 
	C1299.967407,817.996399 1286.238770,818.677063 1272.247070,819.370728 
	C1272.247070,764.336609 1272.247070,710.443237 1272.247070,656.383789 
	C1299.329834,654.907471 1326.107300,654.532898 1348.701172,672.997009 
	C1375.630005,695.003601 1386.043823,723.460876 1377.751465,757.077576 
	C1369.658203,789.887573 1347.615479,809.745728 1314.123779,817.236206 
z"/>
</svg>